<svg id="sw-js-blob-svg" viewBox="0 0 100 100" xmlns="http://www.w3.org/2000/svg">
    <defs>
        <linearGradient id="sw-gradient" x1="0" x2="1" y1="1" y2="0">
            <stop id="stop1" stop-color="rgba(248, 117, 55, 1)" offset="0%"></stop>
            <stop id="stop2" stop-color="rgba(251, 168, 31, 1)" offset="100%"></stop>
        </linearGradient>
    </defs>
    <path fill="url(#sw-gradient)" d="M22.3,-24C29.8,-20.3,37.3,-14.1,39.2,-6.5C41,1.2,37.3,10.3,31.1,15.2C25,20.2,16.5,21,8.7,23.7C1,26.4,-6,31,-11.8,30C-17.7,28.9,-22.4,22.3,-25.1,15.5C-27.9,8.7,-28.6,1.8,-27.8,-5.2C-27,-12.3,-24.6,-19.3,-19.7,-23.5C-14.8,-27.6,-7.4,-28.8,0,-28.8C7.4,-28.9,14.8,-27.7,22.3,-24Z" width="100%" height="100%" transform="translate(50 50)" stroke-width="0" style="transition: 0.3s;"></path>
</svg>